<?xml version="1.0" standalone="no"?>
<!DOCTYPE svg PUBLIC "-//W3C//DTD SVG 20010904//EN"
 "http://www.w3.org/TR/2001/REC-SVG-20010904/DTD/svg10.dtd">
<svg version="1.0" xmlns="http://www.w3.org/2000/svg"
 width="169.5pt" height="213pt" viewBox="116.75 92.5 169.5 213"
 preserveAspectRatio="xMidYMid meet">
<metadata>
Created by potrace 1.16, written by Peter Selinger 2001-2019
</metadata>
<g transform="translate(0.000000,400.000000) scale(0.100000,-0.100000)"
fill="#000000" stroke="none">
<path d="M1905 2934 c-268 -149 -384 -225 -475 -310 -179 -168 -250 -355 -250
-659 0 -297 68 -521 212 -702 113 -143 314 -262 509 -302 l56 -12 179 112
c248 154 240 149 326 218 136 110 250 269 315 442 99 263 82 613 -42 859 -95
190 -297 368 -491 435 -128 43 -106 48 -339 -81z m66 -140 c121 -35 271 -139
366 -253 76 -92 149 -245 173 -362 37 -178 24 -447 -30 -630 -25 -83 -79 -192
-121 -242 -92 -111 -262 -119 -450 -21 -188 99 -317 274 -376 510 -23 95 -23
382 1 514 48 267 133 439 240 486 42 18 131 17 197 -2z"/>
</g>
</svg>
